# xmcd
#
# Track frame offsets:
#  150
#  14261
#  32983
#  49849
#  73293
#  88886
#  104656
#  128189
#  145862
#  174206
#  189458
#
# Disc length: 2825 seconds
#
# Revision: 1
# Processed by: cddbd v1.5.1PL0 Copyright (c) Steve Scherf et al.
# Submitted via: Collectorz.com_Music_Collector 6.9
#
DISCID=9f0b070b
DTITLE=Michael Heyman - Heart Full Of Blues
DYEAR=2005
DGENRE=Blues
TTITLE0=Set Me Free
TTITLE1=Everyday I Cry For You
TTITLE2=Mean Woman Blues
TTITLE3=When It CameTo Loving You
TTITLE4=Love Against The Wall
TTITLE5=Loving You A Long Time
TTITLE6=Please Let Me Love You Again
TTITLE7=Steppin' Out
TTITLE8=Three Hours Past Midnight
TTITLE9=If You See My Baby
TTITLE10=My Sweet Little Honey Dripper
EXTD=
EXTT0=
EXTT1=
EXTT2=
EXTT3=
EXTT4=
EXTT5=
EXTT6=
EXTT7=
EXTT8=
EXTT9=
EXTT10=
PLAYORDER=
